<svg version="1.1" xmlns="http://www.w3.org/2000/svg" xmlns:xlink="http://www.w3.org/1999/xlink" style="display:none">
<symbol viewBox="0.85 0.85 5.1 5.15" id="kaaba-coloured"><path fill-rule="nonzero" d="M1.039 1.48a.08.08 0 0 0 .04.155l2.334-.617 2.334.617a.08.08 0 0 0 .04-.155L3.44.86a.1.1 0 0 0-.046-.002L1.04 1.48z"/><path fill-rule="nonzero" d="M3.393 2.868a.08.08 0 0 0 .041-.155L1.139 2.1v-.437l2.254.604a.08.08 0 0 0 .041-.155l-2.35-.63a.08.08 0 0 0-.105.077v.6a.08.08 0 0 0 .06.08v-.001zm0 2.645a.08.08 0 0 0 .041-.154l-2.295-.615V2.736l2.254.604a.08.08 0 0 0 .041-.154l-2.35-.63a.08.08 0 0 0-.105.076v2.171a.08.08 0 0 0 .06.08z"/><path fill-rule="nonzero" d="M5.848 2.16a.08.08 0 0 0-.16 0v.472a.08.08 0 0 0 .16 0zm-4.869.472a.08.08 0 0 0 .16 0V2.16a.08.08 0 0 0-.16 0zm.1.544a.08.08 0 0 0-.04.155l.393.105a.08.08 0 0 0 .041-.154l-.393-.106zm1.02.273a.08.08 0 0 0-.042.155l1.336.358a.08.08 0 0 0 .041-.155L2.099 3.45z"/><path fill-rule="nonzero" d="m5.688 1.662-2.195.588v.437l2.195-.588zm-2.295.45 2.35-.63a.08.08 0 0 1 .105.076v.6a.08.08 0 0 1-.06.08v-.001l-2.35.63a.08.08 0 0 1-.105-.076V2.19a.08.08 0 0 1 .06-.079zm.1 1.212v2.008l2.195-.588V2.736zm-.16 2.112V3.264a.08.08 0 0 1 .06-.078l2.35-.63a.08.08 0 0 1 .105.076v2.171a.08.08 0 0 1-.06.08l-2.35.629a.08.08 0 0 1-.105-.076"/><path fill-rule="nonzero" d="m5.294 3.24-.465.124V4.41l.465-.124zm-.566-.014.621-.167a.08.08 0 0 1 .105.077v1.21a.08.08 0 0 1-.06.078l-.62.167a.08.08 0 0 1-.105-.076v-1.21a.08.08 0 0 1 .059-.08z"/><path fill-rule="nonzero" d="M5.788 3.33a.08.08 0 0 0-.041-.154l-.394.106a.08.08 0 0 0 .042.154zm-1.019.274a.08.08 0 0 0-.041-.155l-1.335.358a.08.08 0 0 0 .041.155zM.973 5.184a.08.08 0 0 0-.04.154l2.46.631a.1.1 0 0 0 .047-.002l2.453-.629a.08.08 0 0 0-.039-.154l-2.44.625z"/><path fill="#b0bec5" d="m1.369 1.558 2.044.548 2.044-.548-2.044-.54z"/><path fill="#4d4d4d" d="m3.333 2.25-2.194-.588v.437l2.194.588zm.16 0v.437l2.195-.588v-.437z"/><path fill="#fff59d" d="m5.688 2.264-2.25.603a.1.1 0 0 1-.05 0L1.14 2.264v.307l2.274.61 2.275-.61v-.307z"/><path fill="#4d4d4d" d="M3.333 3.324 1.14 2.736v.456l.334.09a.08.08 0 0 1-.041.154l-.293-.078v1.386l2.194.588V3.946l-1.276-.342a.08.08 0 0 1 .042-.155l1.234.331zm.16 0v.456l1.176-.315v-.16a.08.08 0 0 1 .059-.08l.621-.165a.08.08 0 0 1 .105.076v.119l.234-.063v-.456z"/><path fill="#fff59d" d="M4.829 3.364V4.41l.465-.124V3.24z"/><path fill="#4d4d4d" d="M4.669 4.515V3.63l-1.176.315v1.386l2.195-.588V3.358l-.234.062v.926a.08.08 0 0 1-.06.078l-.62.167a.08.08 0 0 1-.105-.076"/><path fill="none" d="M0 0h6.827v6.827H0z"/></symbol>
<symbol viewBox="0.85 0.85 5.1 5.15" id="kaaba"><path fill-rule="nonzero" d="M1.039 1.48a.08.08 0 0 0 .04.155l2.334-.617 2.334.617a.08.08 0 0 0 .04-.155L3.44.86a.1.1 0 0 0-.046-.002L1.04 1.48z"/><path fill-rule="nonzero" d="M3.393 2.868a.08.08 0 0 0 .041-.155L1.139 2.1v-.437l2.254.604a.08.08 0 0 0 .041-.155l-2.35-.63a.08.08 0 0 0-.105.077v.6a.08.08 0 0 0 .06.08v-.001zm0 2.645a.08.08 0 0 0 .041-.154l-2.295-.615V2.736l2.254.604a.08.08 0 0 0 .041-.154l-2.35-.63a.08.08 0 0 0-.105.076v2.171a.08.08 0 0 0 .06.08z"/><path fill-rule="nonzero" d="M5.848 2.16a.08.08 0 0 0-.16 0v.472a.08.08 0 0 0 .16 0zm-4.869.472a.08.08 0 0 0 .16 0V2.16a.08.08 0 0 0-.16 0zm.1.544a.08.08 0 0 0-.04.155l.393.105a.08.08 0 0 0 .041-.154l-.393-.106zm1.02.273a.08.08 0 0 0-.042.155l1.336.358a.08.08 0 0 0 .041-.155L2.099 3.45z"/><path fill-rule="nonzero" d="m5.688 1.662-2.195.588v.437l2.195-.588zm-2.295.45 2.35-.63a.08.08 0 0 1 .105.076v.6a.08.08 0 0 1-.06.08v-.001l-2.35.63a.08.08 0 0 1-.105-.076V2.19a.08.08 0 0 1 .06-.079zm.1 1.212v2.008l2.195-.588V2.736zm-.16 2.112V3.264a.08.08 0 0 1 .06-.078l2.35-.63a.08.08 0 0 1 .105.076v2.171a.08.08 0 0 1-.06.08l-2.35.629a.08.08 0 0 1-.105-.076"/><path fill-rule="nonzero" d="m5.294 3.24-.465.124V4.41l.465-.124zm-.566-.014.621-.167a.08.08 0 0 1 .105.077v1.21a.08.08 0 0 1-.06.078l-.62.167a.08.08 0 0 1-.105-.076v-1.21a.08.08 0 0 1 .059-.08z"/><path fill-rule="nonzero" d="M5.788 3.33a.08.08 0 0 0-.041-.154l-.394.106a.08.08 0 0 0 .042.154zm-1.019.274a.08.08 0 0 0-.041-.155l-1.335.358a.08.08 0 0 0 .041.155zM.973 5.184a.08.08 0 0 0-.04.154l2.46.631a.1.1 0 0 0 .047-.002l2.453-.629a.08.08 0 0 0-.039-.154l-2.44.625z"/><path fill="none" d="M0 0h6.827v6.827H0z"/></symbol>
<symbol viewBox="0 0 512 512" id="logo-github"><path d="M256 32C132.3 32 32 134.9 32 261.7c0 101.5 64.2 187.5 153.2 217.9a17.6 17.6 0 0 0 3.8.4c8.3 0 11.5-6.1 11.5-11.4 0-5.5-.2-19.9-.3-39.1a102.4 102.4 0 0 1-22.6 2.7c-43.1 0-52.9-33.5-52.9-33.5-10.2-26.5-24.9-33.6-24.9-33.6-19.5-13.7-.1-14.1 1.4-14.1h.1c22.5 2 34.3 23.8 34.3 23.8 11.2 19.6 26.2 25.1 39.6 25.1a63 63 0 0 0 25.6-6c2-14.8 7.8-24.9 14.2-30.7-49.7-5.8-102-25.5-102-113.5 0-25.1 8.7-45.6 23-61.6-2.3-5.8-10-29.2 2.2-60.8a18.6 18.6 0 0 1 5-.5c8.1 0 26.4 3.1 56.6 24.1a208.2 208.2 0 0 1 112.2 0c30.2-21 48.5-24.1 56.6-24.1a18.6 18.6 0 0 1 5 .5c12.2 31.6 4.5 55 2.2 60.8 14.3 16.1 23 36.6 23 61.6 0 88.2-52.4 107.6-102.3 113.3 8 7.1 15.2 21.1 15.2 42.5 0 30.7-.3 55.5-.3 63 0 5.4 3.1 11.5 11.4 11.5a19.4 19.4 0 0 0 4-.4C415.9 449.2 480 363.1 480 261.7 480 134.9 379.7 32 256 32"/></symbol>
<symbol viewBox="0 0 512 512" id="logo-gitlab"><path d="m494.07 281.6-25.18-78.08a11 11 0 0 0-.61-2.1l-50.5-156.94a20.08 20.08 0 0 0-19.17-13.82 19.77 19.77 0 0 0-18.95 13.94l-48.14 149.55h-152L131.34 44.59a19.76 19.76 0 0 0-18.86-13.94h-.11a20.15 20.15 0 0 0-19.12 14L42.7 201.73c0 .14-.11.26-.16.4l-25.63 79.48a29.15 29.15 0 0 0 10.44 32.46l221.44 162.41a11.25 11.25 0 0 0 13.38-.07l221.48-162.34a29.13 29.13 0 0 0 10.42-32.47m-331-64.51 61.73 191.76L76.63 217.09m209.64 191.8 59.19-183.84 2.55-8h86.52L300.47 390.44M398.8 59.31l43.37 134.83h-86.82M324.16 217l-43 133.58-25.66 79.56L186.94 217M112.27 59.31l43.46 134.83H69M40.68 295.58a6.19 6.19 0 0 1-2.21-6.9l19-59 139.61 180.59m273.26-114.69L313.92 410.22l.52-.69L453.5 229.64l19 59a6.2 6.2 0 0 1-2.19 6.92"/></symbol>
<symbol viewBox="0 0 512 512" id="logo-linkedin"><path d="M444.17 32H70.28C49.85 32 32 46.7 32 66.89v374.72C32 461.91 49.85 480 70.28 480h373.78c20.54 0 35.94-18.21 35.94-38.39V66.89C480.12 46.7 464.6 32 444.17 32m-273.3 373.43h-64.18V205.88h64.18zM141 175.54h-.46c-20.54 0-33.84-15.29-33.84-34.43 0-19.49 13.65-34.42 34.65-34.42s33.85 14.82 34.31 34.42c-.01 19.14-13.31 34.43-34.66 34.43m264.43 229.89h-64.18V296.32c0-26.14-9.34-44-32.56-44-17.74 0-28.24 12-32.91 23.69-1.75 4.2-2.22 9.92-2.22 15.76v113.66h-64.18V205.88h64.18v27.77c9.34-13.3 23.93-32.44 57.88-32.44 42.13 0 74 27.77 74 87.64z"/></symbol>
<symbol viewBox="0 0 512 512" id="mail-outline"><rect width="416" height="320" x="48" y="96" fill="none" stroke="currentColor" stroke-linecap="round" stroke-linejoin="round" stroke-width="32" rx="40" ry="40"/><path fill="none" stroke="currentColor" stroke-linecap="round" stroke-linejoin="round" stroke-width="32" d="m112 160 144 112 144-112"/></symbol>
<symbol viewBox="0 0 512 512" id="sourcehut"><path d="M256 8C119 8 8 119 8 256s111 248 248 248 248-111 248-248S393 8 256 8m0 448c-110.5 0-200-89.5-200-200S145.5 56 256 56s200 89.5 200 200-89.5 200-200 200"/></symbol>
</svg>