<svg version="1.1" xmlns="http://www.w3.org/2000/svg" xmlns:xlink="http://www.w3.org/1999/xlink" style="display:none">
<symbol viewBox="0 0 6.827 6.827" id="kaaba"><path fill-rule="nonzero" d="M1.039 1.48a.08.08 0 0 0 .04.155l2.334-.617 2.334.617a.08.08 0 0 0 .04-.155L3.44.86a.1.1 0 0 0-.046-.002L1.04 1.48z"/><path fill-rule="nonzero" d="M3.393 2.868a.08.08 0 0 0 .041-.155L1.139 2.1v-.437l2.254.604a.08.08 0 0 0 .041-.155l-2.35-.63a.08.08 0 0 0-.105.077v.6a.08.08 0 0 0 .06.08v-.001zm0 2.645a.08.08 0 0 0 .041-.154l-2.295-.615V2.736l2.254.604a.08.08 0 0 0 .041-.154l-2.35-.63a.08.08 0 0 0-.105.076v2.171a.08.08 0 0 0 .06.08z"/><path fill-rule="nonzero" d="M5.848 2.16a.08.08 0 0 0-.16 0v.472a.08.08 0 0 0 .16 0zm-4.869.472a.08.08 0 0 0 .16 0V2.16a.08.08 0 0 0-.16 0zm.1.544a.08.08 0 0 0-.04.155l.393.105a.08.08 0 0 0 .041-.154l-.393-.106zm1.02.273a.08.08 0 0 0-.042.155l1.336.358a.08.08 0 0 0 .041-.155L2.099 3.45z"/><path fill-rule="nonzero" d="m5.688 1.662-2.195.588v.437l2.195-.588zm-2.295.45 2.35-.63a.08.08 0 0 1 .105.076v.6a.08.08 0 0 1-.06.08v-.001l-2.35.63a.08.08 0 0 1-.105-.076V2.19a.08.08 0 0 1 .06-.079zm.1 1.212v2.008l2.195-.588V2.736zm-.16 2.112V3.264a.08.08 0 0 1 .06-.078l2.35-.63a.08.08 0 0 1 .105.076v2.171a.08.08 0 0 1-.06.08l-2.35.629a.08.08 0 0 1-.105-.076"/><path fill-rule="nonzero" d="m5.294 3.24-.465.124V4.41l.465-.124zm-.566-.014.621-.167a.08.08 0 0 1 .105.077v1.21a.08.08 0 0 1-.06.078l-.62.167a.08.08 0 0 1-.105-.076v-1.21a.08.08 0 0 1 .059-.08z"/><path fill-rule="nonzero" d="M5.788 3.33a.08.08 0 0 0-.041-.154l-.394.106a.08.08 0 0 0 .042.154zm-1.019.274a.08.08 0 0 0-.041-.155l-1.335.358a.08.08 0 0 0 .041.155zM.973 5.184a.08.08 0 0 0-.04.154l2.46.631a.1.1 0 0 0 .047-.002l2.453-.629a.08.08 0 0 0-.039-.154l-2.44.625z"/><path fill="none" d="M0 0h6.827v6.827H0z"/></symbol>
</svg>